<?xml version="1.0" standalone="no"?>
<!DOCTYPE svg PUBLIC "-//W3C//DTD SVG 20010904//EN"
 "http://www.w3.org/TR/2001/REC-SVG-20010904/DTD/svg10.dtd">
<svg version="1.0" xmlns="http://www.w3.org/2000/svg"
 width="500.000000pt" height="500.000000pt" viewBox="0 0 500.000000 500.000000"
 preserveAspectRatio="xMidYMid meet">
<metadata>
Created by potrace 1.14, written by Peter Selinger 2001-2017
</metadata>
<g transform="translate(0.000000,500.000000) scale(0.100000,-0.100000)"
fill="#000000" stroke="none">
<path d="M2329 4995 c-2 -1 -38 -6 -80 -9 -42 -4 -87 -9 -100 -11 -13 -2 -40
-7 -59 -9 -19 -3 -44 -7 -55 -10 -57 -13 -113 -25 -135 -30 -150 -29 -543
-190 -650 -266 -15 -11 -31 -20 -34 -20 -5 0 -182 -119 -211 -142 -37 -29
-142 -115 -151 -123 -350 -316 -597 -691 -737 -1120 -41 -125 -74 -254 -91
-355 -3 -19 -8 -46 -11 -60 -3 -14 -8 -60 -11 -103 -5 -62 -3 -81 9 -95 12
-13 16 -56 20 -198 5 -171 4 -182 -15 -198 -14 -12 -18 -24 -13 -44 3 -15 7
-43 10 -62 3 -19 7 -46 10 -60 3 -14 8 -38 10 -55 43 -241 176 -584 315 -810
65 -106 176 -264 204 -290 6 -5 27 -30 47 -55 88 -108 310 -315 409 -380 12
-8 28 -20 34 -25 45 -41 286 -181 401 -235 151 -70 367 -143 495 -169 149 -30
154 -31 270 -46 123 -15 513 -12 605 4 33 7 78 14 100 17 22 3 78 14 125 25
47 11 92 22 100 24 8 2 47 14 85 26 39 13 72 23 75 24 52 10 317 131 425 195
104 61 102 60 200 129 374 264 691 651 865 1056 11 28 25 59 30 70 13 28 51
133 52 142 0 5 6 24 14 43 12 31 32 103 34 122 1 4 6 22 11 40 6 18 12 44 15
58 3 14 14 69 24 124 25 122 25 133 1 146 -18 9 -19 21 -16 179 3 157 5 172
24 193 19 20 21 31 16 88 -6 78 -17 155 -30 220 -3 14 -8 41 -12 60 -4 19 -8
37 -8 40 -12 47 -20 77 -38 135 -11 39 -21 72 -22 75 -10 37 -37 115 -43 124
-4 6 -14 29 -21 51 -13 40 -108 234 -151 310 -43 76 -135 210 -208 305 -87
112 -294 320 -407 410 -192 153 -480 316 -690 390 -49 18 -99 36 -110 41 -11
5 -65 21 -120 35 -97 24 -122 30 -175 39 -14 3 -36 7 -50 9 -14 3 -47 8 -75
11 -27 4 -61 9 -75 11 -31 5 -427 14 -431 9z"/>
</g>
</svg>
